<svg xmlns="http://www.w3.org/2000/svg" viewBox="0.0828 0 178.7 53.83">
	<path d="M 11.7772 14.1427 L 14.8088 16.8517 L 15.0895 16.5271 L 12.0561 13.8163 L 13.0947 12.6071 L 7.7895 7.9006 L 5.521 10.5419 L 10.8281 15.2484 L 11.7772 14.1427 Z M 14.8055 11.2178 L 17.1757 14.5831 L 17.7143 14.1907 L 15.3424 10.8218 L 16.4494 10.005 L 12.3125 4.2124 L 9.7371 6.1118 L 13.8722 11.9062 L 14.8055 11.2178 Z M 18.3386 9.0438 L 19.9404 12.9032 L 20.7719 12.5465 L 19.1667 8.68 L 20.214 8.2199 L 17.4228 1.6479 L 14.7439 2.8232 L 17.5333 9.3969 L 18.3386 9.0438 Z M 22.2456 7.6723 L 22.9982 11.8509 L 24.1211 11.6423 L 23.3667 7.4548 L 24.2439 7.2835 L 22.9193 0.2532 L 20.314 0.7597 L 21.6386 7.79 L 22.2456 7.6723 Z M 26.3979 7.1676 L 26.2382 11.4675 L 27.6172 11.521 L 27.7768 7.2104 L 28.3926 7.2301 L 28.6119 0.0749 L 26.2259 0 L 26.0066 7.1552 L 26.3979 7.1676 Z M 30.6526 7.601 L 29.5526 11.7957 L 31.1158 12.2201 L 32.2175 8.0183 L 32.5158 8.0986 L 34.3035 1.1735 L 32.2509 0.626 L 30.4632 7.5511 L 30.6526 7.601 Z M 31.0316 47.5465 L 31.9 47.386 L 30.9035 41.8573 L 28.2947 42.3442 L 29.2895 47.8711 L 29.9088 47.7569 L 30.9825 53.4497 L 32.1018 53.2321 L 31.0316 47.5465 Z M 14.3635 42.2869 L 17.1635 39 L 15.9407 37.9229 L 13.1442 41.2044 L 12.9968 41.0742 L 8.367 46.4673 L 9.9652 47.8869 L 14.5951 42.4938 L 14.3635 42.2869 Z M 11.2118 39.0072 L 14.6276 36.4515 L 13.8101 35.3208 L 10.4013 37.8711 L 10.1697 37.5483 L 4.4715 41.7537 L 5.8732 43.7172 L 11.5732 39.5137 L 11.2118 39.0072 Z M 8.9315 35.1603 L 12.7631 33.441 L 12.3017 32.3799 L 8.4789 34.0956 L 8.2333 33.5195 L 1.7684 36.3552 L 2.8192 38.8324 L 9.2841 35.9949 L 8.9315 35.1603 Z M 7.7541 22.0755 L 11.6646 23.1027 L 11.7699 22.6854 L 7.8611 21.6582 L 8.2295 20.2368 L 1.4172 18.4194 L 0.5418 21.8098 L 7.3541 23.6271 L 7.7541 22.0755 Z M 9.3792 17.7704 L 12.9389 19.6858 L 13.0266 19.5199 L 9.4669 17.6027 L 10.2932 16.0191 L 4.0704 12.668 L 2.3318 16.0048 L 8.5546 19.3541 L 9.3792 17.7704 Z M 40.2408 43.1091 L 37.0092 38.5186 L 34.4197 40.4019 L 37.6531 44.9924 L 38.5987 44.3058 L 41.8653 48.8821 L 42.4022 48.4862 L 39.1373 43.9135 L 40.2408 43.1091 Z M 36.3018 45.7345 L 34.1474 40.5447 L 31.4597 41.6986 L 33.614 46.8884 L 34.4298 46.5371 L 36.6614 51.7929 L 37.4895 51.429 L 35.2614 46.1804 L 36.3018 45.7345 Z M 27.2158 48.0013 L 27.4228 42.3995 L 25.0368 42.3068 L 24.8298 47.9103 L 25.2298 47.9246 L 25.0509 53.7868 L 26.4298 53.8313 L 26.6088 47.9781 L 27.2158 48.0013 Z M 22.4333 47.5215 L 23.8491 42.1177 L 21.7982 41.5613 L 20.3825 46.9669 L 20.5754 47.0186 L 19.0982 52.7381 L 20.6649 53.1554 L 22.1386 47.4431 L 22.4333 47.5215 Z M 20.3171 40.9603 L 18.6768 40.0757 L 16.6715 43.9226 L 16.4575 44.3328 L 16.1066 45.0069 L 13.3768 50.2484 L 15.0171 51.1312 L 17.8908 45.6168 L 20.3171 40.9603 Z M 11.6172 30.1169 L 11.44 29.2181 L 7.3979 30.0384 L 7.233 29.1646 L 0.3172 30.511 L 0.8663 33.4252 L 7.7821 32.0787 L 7.5681 30.9391 L 11.6172 30.1169 Z M 11.2547 25.9489 L 7.1846 25.8473 L 7.2197 24.6756 L 0.1811 24.4526 L 0.0828 27.6878 L 7.1214 27.9089 L 7.1635 26.5214 L 11.2372 26.6231 L 11.2547 25.9489 Z M 32.8426 12.8873 L 34.4829 13.7718 L 36.4864 9.925 L 39.7829 3.5991 L 38.1426 2.7163 L 35.2373 8.2913 L 32.8426 12.8873 Z M 39.4088 10.4509 L 35.8053 14.6795 L 37.4105 16.092 L 41.0123 11.8634 L 40.7825 11.6601 L 44.6035 7.2104 L 43.3842 6.1297 L 39.5597 10.5847 L 39.4088 10.4509 Z M 42.6734 13.6609 L 38.2312 16.9835 L 39.647 18.9381 L 44.0891 15.6156 L 43.7277 15.118 L 48.3909 11.6777 L 47.5804 10.5435 L 42.9102 13.9891 L 42.6734 13.6609 Z M 45.8635 19.0794 L 51.0916 16.7859 L 50.639 15.7212 L 45.4039 18.0183 L 45.1495 17.4333 L 40.0916 19.7018 L 41.1618 22.1701 L 46.2197 19.9016 L 45.8635 19.0794 Z M 47.3506 24.5293 L 47.1278 23.404 L 52.6506 22.3285 L 52.4821 21.4297 L 46.9523 22.5051 L 46.7786 21.6205 L 41.3436 22.7262 L 41.9155 25.635 L 47.3506 24.5293 Z M 41.9527 25.9437 L 41.8737 29.1789 L 47.4281 29.318 L 47.4597 27.9394 L 53.0176 28.1141 L 53.0386 27.44 L 47.4772 27.2652 L 47.5053 26.0828 L 41.9527 25.9437 Z M 41.8737 29.2556 L 41.014 32.6387 L 39.3403 35.8489 L 37.0702 38.4742 L 41.2526 42.2122 L 42.2105 41.1029 L 46.3632 44.7875 L 46.6439 44.4629 L 42.4912 40.7801 L 43.5298 39.5781 L 39.6105 36.0754 L 44.2403 38.5687 L 45.0649 36.9832 L 49.9158 39.5942 L 50.0018 39.4283 L 45.1526 36.8173 L 45.9772 35.2319 L 41.3491 32.7386 L 46.4017 34.0673 L 46.7947 32.5192 L 52.1246 33.9407 L 52.2333 33.5233 L 46.9 32.1019 L 47.2632 30.6734 L 41.8737 29.2556 Z M 74.019 20.923 L 78.34 20.933 L 78.363 26.615 L 83.904 20.956 L 89.473 20.935 L 82.977 27.189 L 90.238 34.216 L 84.591 34.249 L 78.356 27.854 L 78.345 34.225 L 74.01 34.243 Z M 91.882 20.944 L 96.147 20.938 L 96.191 28.619 C 96.18 29.799 96.945 30.646 98.091 30.673 L 104.157 30.715 L 104.192 20.942 L 108.464 20.951 L 108.483 34.24 L 105.168 34.237 L 104.492 32.588 C 103.587 33.829 102.515 34.206 101.452 34.223 L 97.023 34.223 C 94.935 34.191 91.981 32.086 91.874 29.794 Z M 112.262 20.948 L 115.618 20.937 L 116.242 22.589 C 116.871 21.729 117.606 21.031 119.084 20.932 L 123.42 20.942 C 126.812 20.934 128.745 23.783 128.842 25.276 L 128.827 34.249 L 124.598 34.247 L 124.582 26.304 C 124.434 25.252 123.833 24.645 122.727 24.454 L 116.575 24.454 L 116.572 34.243 L 112.247 34.248 Z M 132.119 20.937 L 136.395 20.961 L 136.428 29.005 C 136.659 30.228 137.56 30.559 138.435 30.652 L 144.419 30.682 L 144.433 20.948 L 148.7 20.953 L 148.707 34.259 L 145.37 34.246 L 144.762 32.571 C 144.2 33.421 143.278 34.134 142.008 34.221 L 137.095 34.219 C 134.735 34.062 132.264 32.009 132.112 29.537 Z M 152.534 20.93 L 156.768 20.943 L 156.8 28.601 C 156.856 30.354 158.019 30.693 158.773 30.728 L 163.542 30.765 L 163.537 20.936 L 167.812 20.936 L 167.858 28.925 C 167.939 30.219 168.932 30.668 169.742 30.714 L 174.575 30.747 L 174.561 20.944 L 178.832 20.951 L 178.83 34.254 L 175.485 34.255 L 174.865 32.596 C 174.29 33.41 173.366 34.187 172.046 34.249 L 168.478 34.247 C 167.124 34.147 166.163 33.723 165.046 32.654 C 164.453 33.491 163.562 34.116 162.335 34.238 L 157.574 34.222 C 154.762 33.99 152.657 31.884 152.482 29.492 Z"/>
</svg>