<!-- <svg width="60" height="56" viewBox="0 0 60 56" fill="none" xmlns="http://www.w3.org/2000/svg">
<path d="M15.0772 14.1427L18.1088 16.8517L18.3895 16.5271L15.3561 13.8163L16.3947 12.6071L11.0895 7.90063L8.82105 10.5419L14.1281 15.2484L15.0772 14.1427Z" fill="#FFFFFF"/>
<path d="M18.1055 11.2178L20.4757 14.5831L21.0143 14.1907L18.6424 10.8218L19.7494 10.005L15.6125 4.2124L13.0371 6.11177L17.1722 11.9062L18.1055 11.2178Z" fill="#FFFFFF"/>
<path d="M21.6386 9.04381L23.2404 12.9032L24.0719 12.5465L22.4667 8.67999L23.514 8.21986L20.7228 1.64789L18.0439 2.82317L20.8333 9.39693L21.6386 9.04381Z" fill="#FFFFFF"/>
<path d="M25.5456 7.67234L26.2982 11.8509L27.4211 11.6423L26.6667 7.45476L27.5439 7.28355L26.2193 0.253235L23.614 0.759732L24.9386 7.79005L25.5456 7.67234Z" fill="#FFFFFF"/>
<path d="M29.6979 7.16764L29.5382 11.4675L30.9172 11.521L31.0768 7.21045L31.6926 7.23006L31.9119 0.0749045L29.5259 0L29.3066 7.15516L29.6979 7.16764Z" fill="#FFFFFF"/>
<path d="M33.9526 7.60101L32.8526 11.7957L34.4158 12.2201L35.5175 8.01833L35.8158 8.09859L37.6035 1.17349L35.5509 0.625977L33.7632 7.55107L33.9526 7.60101Z" fill="#FFFFFF"/>
<path d="M34.3316 47.5465L35.2 47.386L34.2035 41.8573L31.5947 42.3442L32.5895 47.8711L33.2088 47.7569L34.2825 53.4497L35.4018 53.2321L34.3316 47.5465Z" fill="#FFFFFF"/>
<path d="M17.6635 42.2869L20.4635 39L19.2407 37.9229L16.4442 41.2044L16.2968 41.0742L11.667 46.4673L13.2652 47.8869L17.8951 42.4938L17.6635 42.2869Z" fill="#FFFFFF"/>
<path d="M14.5118 39.0072L17.9276 36.4515L17.1101 35.3208L13.7013 37.8711L13.4697 37.5483L7.77148 41.7537L9.17324 43.7172L14.8732 39.5137L14.5118 39.0072Z" fill="#FFFFFF"/>
<path d="M12.2315 35.1603L16.0631 33.441L15.6017 32.3799L11.7789 34.0956L11.5333 33.5195L5.06836 36.3552L6.11924 38.8324L12.5841 35.9949L12.2315 35.1603Z" fill="#FFFFFF"/>
<path d="M11.0541 22.0755L14.9646 23.1027L15.0699 22.6854L11.1611 21.6582L11.5295 20.2368L4.71724 18.4194L3.8418 21.8098L10.6541 23.6271L11.0541 22.0755Z" fill="#FFFFFF"/>
<path d="M12.6792 17.7704L16.2389 19.6858L16.3266 19.5199L12.7669 17.6027L13.5932 16.0191L7.37043 12.668L5.63184 16.0048L11.8546 19.3541L12.6792 17.7704Z" fill="#FFFFFF"/>
<path d="M43.5408 43.1091L40.3092 38.5186L37.7197 40.4019L40.9531 44.9924L41.8987 44.3058L45.1653 48.8821L45.7022 48.4862L42.4373 43.9135L43.5408 43.1091Z" fill="#FFFFFF"/>
<path d="M39.6018 45.7345L37.4474 40.5447L34.7597 41.6986L36.914 46.8884L37.7298 46.5371L39.9614 51.7929L40.7895 51.429L38.5614 46.1804L39.6018 45.7345Z" fill="#FFFFFF"/>
<path d="M30.5158 48.0013L30.7228 42.3995L28.3368 42.3068L28.1298 47.9103L28.5298 47.9246L28.3509 53.7868L29.7298 53.8313L29.9088 47.9781L30.5158 48.0013Z" fill="#FFFFFF"/>
<path d="M25.7333 47.5215L27.1491 42.1177L25.0982 41.5613L23.6825 46.9669L23.8754 47.0186L22.3982 52.7381L23.9649 53.1554L25.4386 47.4431L25.7333 47.5215Z" fill="#FFFFFF"/>
<path d="M23.6171 40.9603L21.9768 40.0757L19.9715 43.9226L19.7575 44.3328L19.4066 45.0069L16.6768 50.2484L18.3171 51.1312L21.1908 45.6168L23.6171 40.9603Z" fill="#FFFFFF"/>
<path d="M14.9172 30.1169L14.74 29.2181L10.6979 30.0384L10.533 29.1646L3.61719 30.511L4.16631 33.4252L11.0821 32.0787L10.8681 30.9391L14.9172 30.1169Z" fill="#FFFFFF"/>
<path d="M14.5547 25.9489L10.4846 25.8473L10.5197 24.6756L3.48106 24.4526L3.38281 27.6878L10.4214 27.9089L10.4635 26.5214L14.5372 26.6231L14.5547 25.9489Z" fill="#FFFFFF"/>
<path d="M36.1426 12.8873L37.7829 13.7718L39.7864 9.92497L43.0829 3.59911L41.4426 2.71631L38.5373 8.29134L36.1426 12.8873Z" fill="#FFFFFF"/>
<path d="M42.7088 10.4509L39.1053 14.6795L40.7105 16.092L44.3123 11.8634L44.0825 11.6601L47.9035 7.21043L46.6842 6.12967L42.8597 10.5847L42.7088 10.4509Z" fill="#FFFFFF"/>
<path d="M45.9734 13.6609L41.5312 16.9835L42.947 18.9381L47.3891 15.6156L47.0277 15.118L51.6909 11.6777L50.8804 10.5435L46.2102 13.9891L45.9734 13.6609Z" fill="#FFFFFF"/>
<path d="M49.1635 19.0794L54.3916 16.7859L53.939 15.7212L48.7039 18.0183L48.4495 17.4333L43.3916 19.7018L44.4618 22.1701L49.5197 19.9016L49.1635 19.0794Z" fill="#FFFFFF"/>
<path d="M50.6506 24.5293L50.4278 23.404L55.9506 22.3285L55.7821 21.4297L50.2523 22.5051L50.0786 21.6205L44.6436 22.7262L45.2155 25.635L50.6506 24.5293Z" fill="#FFFFFF"/>
<path d="M45.2527 25.9437L45.1737 29.1789L50.7281 29.318L50.7597 27.9394L56.3176 28.1141L56.3386 27.44L50.7772 27.2652L50.8053 26.0828L45.2527 25.9437Z" fill="#FFFFFF"/>
<path d="M45.1737 29.2556L44.314 32.6387L42.6403 35.8489L40.3702 38.4742L44.5526 42.2122L45.5105 41.1029L49.6632 44.7875L49.9439 44.4629L45.7912 40.7801L46.8298 39.5781L42.9105 36.0754L47.5403 38.5687L48.3649 36.9832L53.2158 39.5942L53.3018 39.4283L48.4526 36.8173L49.2772 35.2319L44.6491 32.7386L49.7017 34.0673L50.0947 32.5192L55.4246 33.9407L55.5333 33.5233L50.2 32.1019L50.5632 30.6734L45.1737 29.2556Z" fill="#FFFFFF"/>
</svg> -->

<svg xmlns="http://www.w3.org/2000/svg"
	viewBox="0.0828 0 52.96 53.83"
	width="53"
	height="54"
>
	<path d="M 11.7772 14.1427 L 14.8088 16.8517 L 15.0895 16.5271 L 12.0561 13.8163 L 13.0947 12.6071 L 7.7895 7.9006 L 5.521 10.5419 L 10.8281 15.2484 L 11.7772 14.1427 Z M 14.8055 11.2178 L 17.1757 14.5831 L 17.7143 14.1907 L 15.3424 10.8218 L 16.4494 10.005 L 12.3125 4.2124 L 9.7371 6.1118 L 13.8722 11.9062 L 14.8055 11.2178 Z M 18.3386 9.0438 L 19.9404 12.9032 L 20.7719 12.5465 L 19.1667 8.68 L 20.214 8.2199 L 17.4228 1.6479 L 14.7439 2.8232 L 17.5333 9.3969 L 18.3386 9.0438 Z M 22.2456 7.6723 L 22.9982 11.8509 L 24.1211 11.6423 L 23.3667 7.4548 L 24.2439 7.2835 L 22.9193 0.2532 L 20.314 0.7597 L 21.6386 7.79 L 22.2456 7.6723 Z M 26.3979 7.1676 L 26.2382 11.4675 L 27.6172 11.521 L 27.7768 7.2104 L 28.3926 7.2301 L 28.6119 0.0749 L 26.2259 0 L 26.0066 7.1552 L 26.3979 7.1676 Z M 30.6526 7.601 L 29.5526 11.7957 L 31.1158 12.2201 L 32.2175 8.0183 L 32.5158 8.0986 L 34.3035 1.1735 L 32.2509 0.626 L 30.4632 7.5511 L 30.6526 7.601 Z M 31.0316 47.5465 L 31.9 47.386 L 30.9035 41.8573 L 28.2947 42.3442 L 29.2895 47.8711 L 29.9088 47.7569 L 30.9825 53.4497 L 32.1018 53.2321 L 31.0316 47.5465 Z M 14.3635 42.2869 L 17.1635 39 L 15.9407 37.9229 L 13.1442 41.2044 L 12.9968 41.0742 L 8.367 46.4673 L 9.9652 47.8869 L 14.5951 42.4938 L 14.3635 42.2869 Z M 11.2118 39.0072 L 14.6276 36.4515 L 13.8101 35.3208 L 10.4013 37.8711 L 10.1697 37.5483 L 4.4715 41.7537 L 5.8732 43.7172 L 11.5732 39.5137 L 11.2118 39.0072 Z M 8.9315 35.1603 L 12.7631 33.441 L 12.3017 32.3799 L 8.4789 34.0956 L 8.2333 33.5195 L 1.7684 36.3552 L 2.8192 38.8324 L 9.2841 35.9949 L 8.9315 35.1603 Z M 7.7541 22.0755 L 11.6646 23.1027 L 11.7699 22.6854 L 7.8611 21.6582 L 8.2295 20.2368 L 1.4172 18.4194 L 0.5418 21.8098 L 7.3541 23.6271 L 7.7541 22.0755 Z M 9.3792 17.7704 L 12.9389 19.6858 L 13.0266 19.5199 L 9.4669 17.6027 L 10.2932 16.0191 L 4.0704 12.668 L 2.3318 16.0048 L 8.5546 19.3541 L 9.3792 17.7704 Z M 40.2408 43.1091 L 37.0092 38.5186 L 34.4197 40.4019 L 37.6531 44.9924 L 38.5987 44.3058 L 41.8653 48.8821 L 42.4022 48.4862 L 39.1373 43.9135 L 40.2408 43.1091 Z M 36.3018 45.7345 L 34.1474 40.5447 L 31.4597 41.6986 L 33.614 46.8884 L 34.4298 46.5371 L 36.6614 51.7929 L 37.4895 51.429 L 35.2614 46.1804 L 36.3018 45.7345 Z M 27.2158 48.0013 L 27.4228 42.3995 L 25.0368 42.3068 L 24.8298 47.9103 L 25.2298 47.9246 L 25.0509 53.7868 L 26.4298 53.8313 L 26.6088 47.9781 L 27.2158 48.0013 Z M 22.4333 47.5215 L 23.8491 42.1177 L 21.7982 41.5613 L 20.3825 46.9669 L 20.5754 47.0186 L 19.0982 52.7381 L 20.6649 53.1554 L 22.1386 47.4431 L 22.4333 47.5215 Z M 20.3171 40.9603 L 18.6768 40.0757 L 16.6715 43.9226 L 16.4575 44.3328 L 16.1066 45.0069 L 13.3768 50.2484 L 15.0171 51.1312 L 17.8908 45.6168 L 20.3171 40.9603 Z M 11.6172 30.1169 L 11.44 29.2181 L 7.3979 30.0384 L 7.233 29.1646 L 0.3172 30.511 L 0.8663 33.4252 L 7.7821 32.0787 L 7.5681 30.9391 L 11.6172 30.1169 Z M 11.2547 25.9489 L 7.1846 25.8473 L 7.2197 24.6756 L 0.1811 24.4526 L 0.0828 27.6878 L 7.1214 27.9089 L 7.1635 26.5214 L 11.2372 26.6231 L 11.2547 25.9489 Z M 32.8426 12.8873 L 34.4829 13.7718 L 36.4864 9.925 L 39.7829 3.5991 L 38.1426 2.7163 L 35.2373 8.2913 L 32.8426 12.8873 Z M 39.4088 10.4509 L 35.8053 14.6795 L 37.4105 16.092 L 41.0123 11.8634 L 40.7825 11.6601 L 44.6035 7.2104 L 43.3842 6.1297 L 39.5597 10.5847 L 39.4088 10.4509 Z M 42.6734 13.6609 L 38.2312 16.9835 L 39.647 18.9381 L 44.0891 15.6156 L 43.7277 15.118 L 48.3909 11.6777 L 47.5804 10.5435 L 42.9102 13.9891 L 42.6734 13.6609 Z M 45.8635 19.0794 L 51.0916 16.7859 L 50.639 15.7212 L 45.4039 18.0183 L 45.1495 17.4333 L 40.0916 19.7018 L 41.1618 22.1701 L 46.2197 19.9016 L 45.8635 19.0794 Z M 47.3506 24.5293 L 47.1278 23.404 L 52.6506 22.3285 L 52.4821 21.4297 L 46.9523 22.5051 L 46.7786 21.6205 L 41.3436 22.7262 L 41.9155 25.635 L 47.3506 24.5293 Z M 41.9527 25.9437 L 41.8737 29.1789 L 47.4281 29.318 L 47.4597 27.9394 L 53.0176 28.1141 L 53.0386 27.44 L 47.4772 27.2652 L 47.5053 26.0828 L 41.9527 25.9437 Z M 41.8737 29.2556 L 41.014 32.6387 L 39.3403 35.8489 L 37.0702 38.4742 L 41.2526 42.2122 L 42.2105 41.1029 L 46.3632 44.7875 L 46.6439 44.4629 L 42.4912 40.7801 L 43.5298 39.5781 L 39.6105 36.0754 L 44.2403 38.5687 L 45.0649 36.9832 L 49.9158 39.5942 L 50.0018 39.4283 L 45.1526 36.8173 L 45.9772 35.2319 L 41.3491 32.7386 L 46.4017 34.0673 L 46.7947 32.5192 L 52.1246 33.9407 L 52.2333 33.5233 L 46.9 32.1019 L 47.2632 30.6734 L 41.8737 29.2556 Z"/>
</svg>
