<svg width="14" height="14" viewBox="0 0 14 14" fill="none" xmlns="http://www.w3.org/2000/svg">
<path d="M6.99813 1.53396C8.77877 1.53396 8.98779 1.5419 9.69158 1.57366C10.3424 1.60277 10.6943 1.71127 10.9298 1.80389C11.242 1.92562 11.4643 2.06852 11.6971 2.3014C11.9299 2.53428 12.0755 2.75657 12.1945 3.06884C12.2845 3.30436 12.3956 3.65633 12.4247 4.30733C12.4565 5.01126 12.4644 5.22032 12.4644 7.00131C12.4644 8.7823 12.4565 8.99136 12.4247 9.69529C12.3956 10.3463 12.2871 10.6983 12.1945 10.9338C12.0728 11.246 11.9299 11.4683 11.6971 11.7012C11.4643 11.9341 11.242 12.0796 10.9298 12.1987C10.6943 12.2887 10.3424 12.3999 9.69158 12.429C8.98779 12.4607 8.77877 12.4687 6.99813 12.4687C5.2175 12.4687 5.00848 12.4607 4.30469 12.429C3.65382 12.3999 3.30192 12.2914 3.06644 12.1987C2.75424 12.077 2.53199 11.9341 2.29916 11.7012C2.06632 11.4683 1.9208 11.246 1.80174 10.9338C1.71178 10.6983 1.60066 10.3463 1.57156 9.69529C1.53981 8.99136 1.53187 8.7823 1.53187 7.00131C1.53187 5.22032 1.53981 5.01126 1.57156 4.30733C1.60066 3.65633 1.70914 3.30436 1.80174 3.06884C1.92345 2.75657 2.06632 2.53428 2.29916 2.3014C2.53199 2.06852 2.75424 1.92297 3.06644 1.80389C3.30192 1.71391 3.65382 1.60277 4.30469 1.57366C5.00848 1.53925 5.22014 1.53396 6.99813 1.53396ZM6.99813 0.33252C5.18839 0.33252 4.96085 0.340459 4.24913 0.372215C3.54005 0.403971 3.05586 0.517764 2.63253 0.681837C2.19332 0.851203 1.82291 1.08144 1.45249 1.45192C1.08208 1.82241 0.854539 2.19555 0.682561 2.63219C0.51852 3.05561 0.40475 3.53989 0.373 4.25176C0.34125 4.96098 0.333313 5.18856 0.333313 6.99866C0.333313 8.80876 0.34125 9.03635 0.373 9.74821C0.40475 10.4574 0.51852 10.9417 0.682561 11.3678C0.851894 11.8071 1.08208 12.1776 1.45249 12.548C1.82291 12.9185 2.19597 13.1461 2.63253 13.3181C3.05586 13.4822 3.54005 13.596 4.25177 13.6278C4.9635 13.6595 5.18839 13.6674 7.00078 13.6674C8.81316 13.6674 9.03806 13.6595 9.74979 13.6278C10.4589 13.596 10.9431 13.4822 11.369 13.3181C11.8082 13.1488 12.1786 12.9185 12.5491 12.548C12.9195 12.1776 13.147 11.8044 13.319 11.3678C13.483 10.9444 13.5968 10.4601 13.6286 9.74821C13.6603 9.03635 13.6682 8.81141 13.6682 6.99866C13.6682 5.18592 13.6603 4.96098 13.6286 4.24911C13.5968 3.53989 13.483 3.05561 13.319 2.62955C13.1497 2.19025 12.9195 1.81977 12.5491 1.44928C12.1786 1.07879 11.8056 0.851203 11.369 0.679191C10.9457 0.515117 10.4615 0.401324 9.74979 0.369568C9.03541 0.340459 8.80787 0.33252 6.99813 0.33252Z" fill="#111111"/>
<path d="M7.00078 3.66625C5.1613 3.66625 3.66705 5.15793 3.66705 6.99998C3.66705 8.84204 5.15872 10.3337 7.00078 10.3337C8.84283 10.3337 10.3345 8.84204 10.3345 6.99998C10.3345 5.15793 8.84283 3.66625 7.00078 3.66625ZM7.00078 9.1615C5.80537 9.1615 4.83669 8.19281 4.83669 6.99741C4.83669 5.802 5.80537 4.83332 7.00078 4.83332C8.19618 4.83332 9.16487 5.802 9.16487 6.99741C9.16487 8.19281 8.19618 9.1615 7.00078 9.1615Z" fill="#111111"/>
<path d="M10.3345 4.49969C10.7948 4.49969 11.1679 4.12654 11.1679 3.66625C11.1679 3.20596 10.7948 2.83282 10.3345 2.83282C9.87422 2.83282 9.50108 3.20596 9.50108 3.66625C9.50108 4.12654 9.87422 4.49969 10.3345 4.49969Z" fill="#111111"/>
</svg>
