<svg xmlns="http://www.w3.org/2000/svg" viewBox="1.8 1.8 18 18">
	<path d="M 10.8105 1.8 C 5.8551 1.8 1.8211 5.8305 1.8193 10.7859 C 1.8184 12.3699 2.2333 13.9163 3.0199 15.2789 L 1.8 19.8 L 6.5092 18.6873 C 7.8223 19.4037 9.3005 19.7798 10.8053 19.7807 L 10.8088 19.7807 C 15.7633 19.7807 19.7955 15.7492 19.7982 10.7947 C 19.8 8.3926 18.866 6.1342 17.1686 4.435 C 15.4712 2.7367 13.2153 1.8009 10.8105 1.8 z M 10.8088 3.6 C 12.7312 3.6009 14.5378 4.3504 15.8959 5.7076 C 17.254 7.0666 18 8.8724 17.9982 10.793 C 17.9964 14.7566 14.7724 17.9807 10.807 17.9807 C 9.6073 17.9798 8.419 17.6785 7.3723 17.107 L 6.7658 16.7766 L 6.0961 16.9348 L 4.3242 17.3531 L 4.7566 15.7465 L 4.9518 15.0258 L 4.5791 14.3789 C 3.9509 13.2917 3.6184 12.0486 3.6193 10.7859 C 3.6211 6.8241 6.8461 3.6 10.8088 3.6 z M 7.6289 6.6375 C 7.4786 6.6375 7.2356 6.6938 7.0295 6.9188 C 6.8234 7.1429 6.242 7.6856 6.242 8.7908 C 6.242 9.896 7.0471 10.9643 7.1596 11.1146 C 7.2712 11.264 8.7136 13.6037 10.9969 14.5037 C 12.8941 15.2516 13.2794 15.104 13.6916 15.0662 C 14.1038 15.0293 15.0214 14.5239 15.2086 13.9992 C 15.3958 13.4745 15.3962 13.0232 15.3404 12.9305 C 15.2846 12.8369 15.1348 12.7811 14.9098 12.6686 C 14.6857 12.5561 13.5813 12.0138 13.3752 11.9391 C 13.1691 11.8644 13.0183 11.8266 12.8689 12.0516 C 12.7195 12.2766 12.2902 12.7811 12.1588 12.9305 C 12.0274 13.0808 11.8969 13.101 11.6719 12.9885 C 11.4469 12.8751 10.7234 12.6373 9.8648 11.8723 C 9.197 11.2774 8.7464 10.5434 8.615 10.3184 C 8.4845 10.0943 8.6027 9.9712 8.7152 9.8596 C 8.816 9.7588 8.9385 9.5972 9.051 9.4658 C 9.1626 9.3344 9.2013 9.2408 9.276 9.0914 C 9.3507 8.942 9.3124 8.8102 9.2566 8.6977 C 9.2008 8.5852 8.7639 7.4759 8.5641 7.0313 C 8.3958 6.6578 8.218 6.6491 8.0578 6.6428 C 7.9273 6.6374 7.7783 6.6375 7.6289 6.6375 z" fill="#000000"/>
</svg>