<svg xmlns="http://www.w3.org/2000/svg" viewBox="0.0026 0.1816 18 13.63">
	<path d="M 11.779 6.1932 L 7.8024 4.0174 C 7.5737 3.8923 7.3035 3.897 7.0794 4.0298 C 6.8551 4.1627 6.7213 4.3975 6.7213 4.6582 V 8.9725 C 6.7213 9.2319 6.8543 9.4663 7.077 9.5994 C 7.1933 9.6689 7.3223 9.7038 7.4515 9.7038 C 7.5699 9.7038 7.6886 9.6745 7.7977 9.6158 L 11.7745 7.4774 C 12.0105 7.3504 12.1579 7.105 12.159 6.8368 C 12.16 6.5686 12.0144 6.3221 11.779 6.1932 Z M 7.7762 8.4298 V 5.2053 L 10.7482 6.8315 L 7.7762 8.4298 Z M 17.8701 3.3994 L 17.8693 3.3912 C 17.8541 3.2463 17.7023 1.9576 17.0758 1.3021 C 16.3517 0.5311 15.5307 0.4375 15.1359 0.3926 C 15.1032 0.3889 15.0733 0.3854 15.0465 0.3819 L 15.0151 0.3786 C 12.6354 0.2055 9.0417 0.1819 9.0057 0.1818 L 9.0026 0.1816 L 8.9994 0.1818 C 8.9634 0.1819 5.3697 0.2055 2.9686 0.3786 L 2.9369 0.3819 C 2.9114 0.3853 2.8832 0.3885 2.8526 0.392 C 2.4623 0.4371 1.6501 0.5309 0.9239 1.3297 C 0.3272 1.9782 0.1548 3.2393 0.137 3.381 L 0.135 3.3994 C 0.1296 3.4597 0.0026 4.8949 0.0026 6.3358 V 7.6827 C 0.0026 9.1235 0.1296 10.5588 0.135 10.6192 L 0.1359 10.6283 C 0.1512 10.7708 0.3028 12.0359 0.9264 12.6916 C 1.6073 13.4368 2.4682 13.5354 2.9313 13.5884 C 3.0045 13.5968 3.0675 13.6039 3.1105 13.6115 L 3.1521 13.6172 C 4.5261 13.748 8.8339 13.8124 9.0166 13.815 L 9.0221 13.8151 L 9.0275 13.815 C 9.0635 13.8148 12.6571 13.7912 15.0368 13.6182 L 15.0682 13.6149 C 15.0983 13.6109 15.1321 13.6073 15.1692 13.6035 C 15.5573 13.5623 16.365 13.4767 17.0812 12.6887 C 17.6779 12.0401 17.8505 10.7791 17.8681 10.6375 L 17.8701 10.6191 C 17.8755 10.5586 18.0027 9.1235 18.0027 7.6827 V 6.3358 C 18.0025 4.8949 17.8755 3.4598 17.8701 3.3994 Z M 16.9477 7.6827 C 16.9477 9.0163 16.8312 10.3897 16.8203 10.5158 C 16.7755 10.8631 16.5935 11.661 16.3028 11.977 C 15.8546 12.4701 15.3941 12.519 15.0579 12.5546 C 15.0173 12.5588 14.9796 12.563 14.9456 12.5672 C 12.644 12.7337 9.1859 12.7592 9.0266 12.7602 C 8.8479 12.7576 4.6031 12.6926 3.271 12.5689 C 3.2028 12.5577 3.129 12.5492 3.0513 12.5404 C 2.657 12.4953 2.1173 12.4335 1.7023 11.977 L 1.6926 11.9665 C 1.4069 11.6689 1.2302 10.9228 1.1853 10.5199 C 1.1769 10.4246 1.0574 9.035 1.0574 7.6827 V 6.3358 C 1.0574 5.0037 1.1736 3.6318 1.1849 3.5031 C 1.2383 3.094 1.4237 2.3444 1.7023 2.0415 C 2.1643 1.5334 2.6514 1.4771 2.9736 1.4398 C 3.0043 1.4363 3.033 1.433 3.0595 1.4295 C 5.3947 1.2623 8.8776 1.2374 9.0026 1.2365 C 9.1275 1.2373 12.6092 1.2623 14.9236 1.4295 C 14.952 1.4331 14.9831 1.4367 15.0165 1.4405 C 15.3478 1.4783 15.8487 1.5354 16.3083 2.0257 L 16.3126 2.0302 C 16.5982 2.3278 16.7749 3.087 16.8198 3.498 C 16.8278 3.588 16.9477 4.9806 16.9477 6.3358 V 7.6827 Z" fill="#000000"/>
</svg>