<svg width="18" height="18" viewBox="0 0 18 18" fill="none" xmlns="http://www.w3.org/2000/svg">
<g clip-path="url(#clip0_1202_11265)">
<path d="M11.779 8.19324L7.80239 6.0174C7.57374 5.89229 7.30348 5.89696 7.07936 6.02976C6.8551 6.16269 6.72134 6.39752 6.72134 6.65817V10.9725C6.72134 11.2319 6.85428 11.4663 7.07702 11.5994C7.19334 11.6689 7.32229 11.7038 7.45152 11.7038C7.56989 11.7038 7.68855 11.6745 7.79772 11.6158L11.7745 9.4774C12.0105 9.35037 12.1579 9.10497 12.159 8.83676C12.16 8.56856 12.0144 8.32205 11.779 8.19324ZM7.77616 10.4298V7.20529L10.7482 8.83154L7.77616 10.4298Z" fill="#111111"/>
<path d="M17.8701 5.3994L17.8693 5.39116C17.8541 5.24628 17.7023 3.95758 17.0758 3.30211C16.3517 2.53114 15.5307 2.43748 15.1359 2.39258C15.1032 2.38887 15.0733 2.38544 15.0465 2.38187L15.0151 2.37857C12.6354 2.20554 9.0417 2.18192 9.00572 2.18178L9.00256 2.18164L8.9994 2.18178C8.96342 2.18192 5.36967 2.20554 2.96862 2.37857L2.93689 2.38187C2.91135 2.3853 2.8832 2.38846 2.85257 2.39203C2.46229 2.43707 1.65012 2.53087 0.923931 3.32971C0.327239 3.97818 0.154754 5.23927 0.137039 5.381L0.134979 5.3994C0.129623 5.45969 0.00259399 6.89491 0.00259399 8.33577V9.68269C0.00259399 11.1235 0.129623 12.5588 0.134979 12.6192L0.13594 12.6283C0.151183 12.7708 0.302794 14.0359 0.926403 14.6916C1.60728 15.4368 2.46819 15.5354 2.93126 15.5884C3.00446 15.5968 3.06749 15.6039 3.11048 15.6115L3.15209 15.6172C4.52606 15.748 8.83392 15.8124 9.01657 15.815L9.02206 15.8151L9.02755 15.815C9.06353 15.8148 12.6571 15.7912 15.0368 15.6182L15.0682 15.6149C15.0983 15.6109 15.1321 15.6073 15.1692 15.6035C15.5573 15.5623 16.365 15.4767 17.0812 14.6887C17.6779 14.0401 17.8505 12.7791 17.8681 12.6375L17.8701 12.6191C17.8755 12.5586 18.0027 11.1235 18.0027 9.68269V8.33577C18.0025 6.89491 17.8755 5.45982 17.8701 5.3994ZM16.9477 9.68269C16.9477 11.0163 16.8312 12.3897 16.8203 12.5158C16.7755 12.8631 16.5935 13.661 16.3028 13.977C15.8546 14.4701 15.3941 14.519 15.0579 14.5546C15.0173 14.5588 14.9796 14.563 14.9456 14.5672C12.644 14.7337 9.18589 14.7592 9.02659 14.7602C8.84793 14.7576 4.6031 14.6926 3.27101 14.5689C3.20276 14.5577 3.12902 14.5492 3.05129 14.5404C2.65702 14.4953 2.11732 14.4335 1.70231 13.977L1.69256 13.9665C1.40692 13.6689 1.23017 12.9228 1.18527 12.5199C1.17689 12.4246 1.05741 11.035 1.05741 9.68269V8.33577C1.05741 7.00368 1.17359 5.63176 1.18486 5.50308C1.23828 5.09398 1.42367 4.34444 1.70231 4.04149C2.16428 3.53337 2.65139 3.47707 2.97356 3.43985C3.00432 3.43628 3.03302 3.43298 3.05953 3.42955C5.39466 3.26228 8.87759 3.23743 9.00256 3.23647C9.12753 3.23729 12.6092 3.26228 14.9236 3.42955C14.952 3.43312 14.9831 3.43669 15.0165 3.44054C15.3478 3.4783 15.8487 3.53543 16.3083 4.0257L16.3126 4.03023C16.5982 4.32782 16.7749 5.08697 16.8198 5.498C16.8278 5.58795 16.9477 6.98061 16.9477 8.33577V9.68269Z" fill="#111111"/>
</g>
<defs>
<clipPath id="clip0_1202_11265">
<rect width="18" height="18" fill="white" transform="translate(0.00259399 0.00244141)"/>
</clipPath>
</defs>
</svg>
